<svg width="30" height="30" viewBox="0 0 30 30" fill="none" xmlns="http://www.w3.org/2000/svg">
<path d="M22.5 9.80393C22.5 7.85381 21.7098 5.98356 20.3033 4.60462C18.8968 3.22567 16.9891 2.45099 15 2.45099C13.0109 2.45099 11.1032 3.22567 9.6967 4.60462C8.29018 5.98356 7.5 7.85381 7.5 9.80393C7.5 18.3824 3.75 20.8333 3.75 20.8333H26.25C26.25 20.8333 22.5 18.3824 22.5 9.80393Z" stroke="white" stroke-width="2" stroke-linecap="round" stroke-linejoin="round"/>
<path d="M17.1625 25.7353C16.9428 26.1067 16.6273 26.415 16.2478 26.6293C15.8683 26.8436 15.438 26.9564 15 26.9564C14.562 26.9564 14.1318 26.8436 13.7522 26.6293C13.3727 26.415 13.0573 26.1067 12.8375 25.7353" stroke="white" stroke-width="2" stroke-linecap="round" stroke-linejoin="round"/>
</svg>
