<svg width="520" height="347" viewBox="0 0 520 347" fill="none" xmlns="http://www.w3.org/2000/svg">
<path d="M438.27 97.0666C438.27 97.0666 367.009 24.0725 274.401 18.4357C181.792 12.7989 127.788 72.6266 102.197 108.306C76.6064 143.985 12.7573 203.431 20.2869 257.865C27.8165 312.298 101.636 353.6 207.383 335.455C313.13 317.311 343.789 310.426 391.969 324.196C440.149 337.965 502.722 317.311 503.97 239.096C505.218 160.881 438.27 97.0666 438.27 97.0666Z" fill="#A0C97B"/>
<path opacity="0.7" d="M438.27 97.0666C438.27 97.0666 367.009 24.0725 274.401 18.4357C181.792 12.7989 127.788 72.6266 102.197 108.306C76.6064 143.985 12.7573 203.431 20.2869 257.865C27.8165 312.298 101.636 353.6 207.383 335.455C313.13 317.311 343.789 310.426 391.969 324.196C440.149 337.965 502.722 317.311 503.97 239.096C505.218 160.881 438.27 97.0666 438.27 97.0666Z" fill="white"/>
<path d="M33.918 316.611H485.916" stroke="#263238" stroke-miterlimit="10"/>
<path d="M53.6086 200.741L62.7537 288.309" stroke="#263238" stroke-width="2" stroke-miterlimit="10"/>
<path d="M61.2769 271.551L57.1377 267.176" stroke="#263238" stroke-width="2" stroke-miterlimit="10"/>
<path d="M58.3927 268.486C58.3844 267.817 58.2328 267.156 57.9482 266.55C57.6636 265.944 57.2525 265.405 56.7426 264.971C55.6818 264.021 50.0866 261.671 49.5527 263.64C48.9772 265.782 54.7042 269.998 58.3927 268.486Z" fill="#A0C97B" stroke="#263238" stroke-miterlimit="10"/>
<path d="M58.3927 268.486L53.0679 265.165" stroke="#263238" stroke-width="0.5" stroke-miterlimit="10"/>
<path d="M62.3169 281.514L58.1777 277.139" stroke="#263238" stroke-width="2" stroke-miterlimit="10"/>
<path d="M59.4327 278.45C59.4249 277.78 59.2735 277.119 58.9888 276.513C58.7042 275.907 58.2929 275.368 57.7826 274.934C56.7218 273.985 51.1266 271.627 50.5927 273.596C50.0173 275.746 55.7442 279.954 59.4327 278.45Z" fill="#A0C97B" stroke="#263238" stroke-miterlimit="10"/>
<path d="M59.4327 278.45L54.1079 275.129" stroke="#263238" stroke-width="0.5" stroke-miterlimit="10"/>
<path d="M58.7393 247.25L54.6001 242.875" stroke="#263238" stroke-width="2" stroke-miterlimit="10"/>
<path d="M55.855 244.185C55.8467 243.516 55.6958 242.856 55.4125 242.25C55.1291 241.644 54.7198 241.105 54.2118 240.67C53.1441 239.72 47.5489 237.363 47.015 239.339C46.4534 241.481 52.1665 245.69 55.855 244.185Z" fill="#A0C97B" stroke="#263238" stroke-miterlimit="10"/>
<path d="M55.8551 244.185L50.5303 240.864" stroke="#263238" stroke-width="0.5" stroke-miterlimit="10"/>
<path d="M59.7793 257.206L55.6401 252.831" stroke="#263238" stroke-width="2" stroke-miterlimit="10"/>
<path d="M56.8951 254.141C56.8868 253.472 56.7352 252.811 56.4506 252.205C56.166 251.599 55.7549 251.06 55.245 250.626C54.1842 249.676 48.589 247.326 48.0551 249.295C47.4797 251.437 53.2066 255.653 56.8951 254.141Z" fill="#A0C97B" stroke="#263238" stroke-miterlimit="10"/>
<path d="M56.8951 254.141L51.5703 250.82" stroke="#263238" stroke-width="0.5" stroke-miterlimit="10"/>
<path d="M57.0546 231.067L52.9084 226.692" stroke="#263238" stroke-width="2" stroke-miterlimit="10"/>
<path d="M54.1702 228.003C54.1619 227.333 54.0103 226.673 53.7257 226.066C53.4411 225.46 53.03 224.922 52.5201 224.487C51.4593 223.544 45.8571 221.187 45.3302 223.156C44.7478 225.333 50.4817 229.493 54.1702 228.003Z" fill="#A0C97B" stroke="#263238" stroke-miterlimit="10"/>
<path d="M54.1701 228.003L48.8384 224.682" stroke="#263238" stroke-width="0.5" stroke-miterlimit="10"/>
<path d="M55.3557 214.822L51.2166 210.447" stroke="#263238" stroke-width="2" stroke-miterlimit="10"/>
<path d="M52.4715 211.758C52.4632 211.088 52.3117 210.428 52.027 209.822C51.7424 209.215 51.3313 208.677 50.8214 208.243C49.7606 207.293 44.1654 204.935 43.6315 206.911C43.0561 209.054 48.783 213.262 52.4715 211.758Z" fill="#A0C97B" stroke="#263238" stroke-miterlimit="10"/>
<path d="M52.4715 211.758L47.1467 208.437" stroke="#263238" stroke-width="0.5" stroke-miterlimit="10"/>
<path d="M60.5835 265.658L63.7312 260.52" stroke="#263238" stroke-width="2" stroke-miterlimit="10"/>
<path d="M62.7745 262.08C62.6431 261.423 62.6543 260.746 62.8074 260.094C62.9605 259.442 63.2519 258.831 63.662 258.301C64.5009 257.15 69.4929 253.691 70.422 255.528C71.4135 257.476 66.6919 262.773 62.7745 262.08Z" fill="#A0C97B" stroke="#263238" stroke-miterlimit="10"/>
<path d="M62.7744 262.066L67.5723 257.476" stroke="#263238" stroke-width="0.5" stroke-miterlimit="10"/>
<path d="M57.845 239.45L60.9996 234.312" stroke="#263238" stroke-width="2" stroke-miterlimit="10"/>
<path d="M60.0358 235.858C59.9061 235.201 59.9182 234.525 60.0713 233.873C60.2243 233.221 60.5148 232.61 60.9233 232.079C61.7691 230.929 66.7611 227.469 67.6833 229.306C68.6955 231.268 63.96 236.565 60.0358 235.858Z" fill="#A0C97B" stroke="#263238" stroke-miterlimit="10"/>
<path d="M60.0359 235.858L64.8338 231.268" stroke="#263238" stroke-width="0.5" stroke-miterlimit="10"/>
<path d="M56.6455 227.933L59.7932 222.796" stroke="#263238" stroke-width="2" stroke-miterlimit="10"/>
<path d="M58.8363 224.335C58.7048 223.678 58.716 223.001 58.8691 222.349C59.0223 221.697 59.3137 221.086 59.7238 220.556C60.5696 219.412 65.5547 215.952 66.4838 217.783C67.4891 219.745 62.7536 225.049 58.8363 224.335Z" fill="#A0C97B" stroke="#263238" stroke-miterlimit="10"/>
<path d="M58.8364 224.335L63.6343 219.752" stroke="#263238" stroke-width="0.5" stroke-miterlimit="10"/>
<path d="M54.8843 211.051L58.032 205.913" stroke="#263238" stroke-width="2" stroke-miterlimit="10"/>
<path d="M57.0753 207.452C56.9438 206.796 56.955 206.118 57.1082 205.466C57.2613 204.814 57.5527 204.203 57.9628 203.674C58.8017 202.523 63.7937 199.063 64.7228 200.9C65.7281 202.862 61.0134 208.166 57.0753 207.452Z" fill="#A0C97B" stroke="#263238" stroke-miterlimit="10"/>
<path d="M57.0752 207.452L61.8731 202.869" stroke="#263238" stroke-width="0.5" stroke-miterlimit="10"/>
<path d="M53.5324 200.249C53.4027 199.592 53.4148 198.915 53.5679 198.263C53.7209 197.612 54.0114 197 54.4198 196.47C55.2657 195.326 60.2577 191.866 61.1868 193.697C62.1921 195.659 57.4566 200.963 53.5324 200.249Z" fill="#A0C97B" stroke="#263238" stroke-miterlimit="10"/>
<path d="M53.5325 200.249L58.3303 195.666" stroke="#263238" stroke-width="0.5" stroke-miterlimit="10"/>
<path d="M53.8167 200.45C53.1491 200.511 52.4762 200.428 51.8434 200.207C51.2106 199.986 50.6328 199.631 50.149 199.167C49.0951 198.21 46.1762 192.885 48.069 192.15C50.1559 191.36 54.933 196.622 53.8167 200.45Z" fill="#A0C97B" stroke="#263238" stroke-miterlimit="10"/>
<path d="M53.8166 200.45L49.7537 195.194" stroke="#263238" stroke-width="0.5" stroke-miterlimit="10"/>
<path d="M77.7158 212.798L68.6262 300.38" stroke="#263238" stroke-width="2" stroke-miterlimit="10"/>
<path d="M70.6368 283.677L67.4822 278.54" stroke="#263238" stroke-width="2" stroke-miterlimit="10"/>
<path d="M68.4458 280.107C68.5755 279.45 68.5634 278.773 68.4103 278.121C68.2573 277.47 67.9668 276.858 67.5584 276.328C66.7125 275.184 61.7205 271.724 60.7914 273.555C59.7861 275.496 64.5285 280.8 68.4458 280.107Z" fill="#A0C97B" stroke="#263238" stroke-miterlimit="10"/>
<path d="M68.4459 280.079L63.9185 275.732" stroke="#263238" stroke-width="0.5" stroke-miterlimit="10"/>
<path d="M73.1605 259.369L70.0059 254.231" stroke="#263238" stroke-width="2" stroke-miterlimit="10"/>
<path d="M70.9697 255.778C71.0993 255.121 71.0872 254.444 70.9342 253.792C70.7811 253.141 70.4906 252.529 70.0822 251.999C69.2363 250.848 64.2443 247.395 63.3153 249.226C62.3099 251.188 67.0454 256.492 70.9697 255.778Z" fill="#A0C97B" stroke="#263238" stroke-miterlimit="10"/>
<path d="M70.9697 255.778L66.4353 251.43" stroke="#263238" stroke-width="0.5" stroke-miterlimit="10"/>
<path d="M72.1276 269.332L68.9729 264.195" stroke="#263238" stroke-width="2" stroke-miterlimit="10"/>
<path d="M69.9367 265.734C70.0664 265.077 70.0542 264.4 69.9012 263.749C69.7481 263.097 69.4577 262.486 69.0492 261.955C68.2034 260.811 63.2114 257.351 62.2823 259.182C61.277 261.151 66.0124 266.448 69.9367 265.734Z" fill="#A0C97B" stroke="#263238" stroke-miterlimit="10"/>
<path d="M69.9365 265.734L65.4021 261.387" stroke="#263238" stroke-width="0.5" stroke-miterlimit="10"/>
<path d="M74.8385 243.187L71.6838 238.056" stroke="#263238" stroke-width="2" stroke-miterlimit="10"/>
<path d="M72.6475 239.595C72.7771 238.939 72.765 238.262 72.612 237.61C72.4589 236.958 72.1685 236.347 71.76 235.817C70.9142 234.666 65.9222 231.213 64.9931 233.043C63.9878 235.04 68.7302 240.309 72.6475 239.595Z" fill="#A0C97B" stroke="#263238" stroke-miterlimit="10"/>
<path d="M72.6476 239.595L68.1201 235.248" stroke="#263238" stroke-width="0.5" stroke-miterlimit="10"/>
<path d="M76.5232 226.942L73.3755 221.804" stroke="#263238" stroke-width="2" stroke-miterlimit="10"/>
<path d="M74.3323 223.343C74.4638 222.687 74.4526 222.01 74.2995 221.358C74.1463 220.706 73.8549 220.094 73.4448 219.565C72.599 218.421 67.607 214.961 66.6779 216.791C65.6726 218.76 70.415 224.058 74.3323 223.343Z" fill="#A0C97B" stroke="#263238" stroke-miterlimit="10"/>
<path d="M74.3324 223.343L69.8049 218.996" stroke="#263238" stroke-width="0.5" stroke-miterlimit="10"/>
<path d="M71.1707 277.763L75.3099 273.388" stroke="#263238" stroke-width="2" stroke-miterlimit="10"/>
<path d="M74.0549 274.699C74.061 274.029 74.2109 273.369 74.4944 272.762C74.7779 272.156 75.1884 271.617 75.6981 271.183C76.7659 270.234 82.3611 267.876 82.888 269.845C83.4704 271.988 77.7435 276.203 74.0549 274.699Z" fill="#A0C97B" stroke="#263238" stroke-miterlimit="10"/>
<path d="M74.0549 274.699L79.6917 271.197" stroke="#263238" stroke-width="0.5" stroke-miterlimit="10"/>
<path d="M73.8887 251.555L78.0279 247.173" stroke="#263238" stroke-width="2" stroke-miterlimit="10"/>
<path d="M76.7729 248.484C76.7813 247.814 76.9328 247.154 77.2175 246.547C77.5021 245.941 77.9132 245.403 78.4231 244.968C79.4839 244.019 85.0791 241.661 85.6129 243.637C86.1884 245.78 80.4615 249.988 76.7729 248.484Z" fill="#A0C97B" stroke="#263238" stroke-miterlimit="10"/>
<path d="M76.7729 248.484L82.4097 244.989" stroke="#263238" stroke-width="0.5" stroke-miterlimit="10"/>
<path d="M75.0881 240.032L79.2273 235.657" stroke="#263238" stroke-width="2" stroke-miterlimit="10"/>
<path d="M77.9653 236.967C77.9737 236.298 78.1252 235.638 78.4098 235.031C78.6945 234.425 79.1055 233.887 79.6155 233.452C80.6763 232.502 86.2715 230.145 86.8053 232.114C87.36 234.257 81.6608 238.507 77.9653 236.967Z" fill="#A0C97B" stroke="#263238" stroke-miterlimit="10"/>
<path d="M77.9653 236.967L83.6091 233.466" stroke="#263238" stroke-width="0.5" stroke-miterlimit="10"/>
<path d="M76.8352 223.149L80.9813 218.767" stroke="#263238" stroke-width="2" stroke-miterlimit="10"/>
<path d="M79.7334 220.085C79.7413 219.415 79.8926 218.755 80.1773 218.148C80.4619 217.542 80.8733 217.004 81.3835 216.57C82.4443 215.613 88.0395 213.255 88.5734 215.231C89.135 217.374 83.4081 221.589 79.7334 220.085Z" fill="#A0C97B" stroke="#263238" stroke-miterlimit="10"/>
<path d="M79.7195 220.085L85.3632 216.583" stroke="#263238" stroke-width="0.5" stroke-miterlimit="10"/>
<path d="M77.7437 212.306C77.752 211.637 77.9029 210.977 78.1862 210.371C78.4696 209.765 78.8789 209.226 79.3869 208.79C80.4546 207.841 86.0498 205.483 86.5767 207.452C87.1591 209.595 81.4322 213.81 77.7437 212.306Z" fill="#A0C97B" stroke="#263238" stroke-miterlimit="10"/>
<path d="M77.7437 212.306L83.3805 208.804" stroke="#263238" stroke-width="0.5" stroke-miterlimit="10"/>
<path d="M77.9724 212.555C77.3079 212.478 76.6677 212.259 76.0949 211.913C75.522 211.567 75.0298 211.103 74.6513 210.551C73.8193 209.394 72.0583 203.583 74.0759 203.258C76.2668 202.911 79.8583 209.047 77.9724 212.555Z" fill="#A0C97B" stroke="#263238" stroke-miterlimit="10"/>
<path d="M77.9723 212.555L75.0811 206.586" stroke="#263238" stroke-width="0.5" stroke-miterlimit="10"/>
<path d="M67.302 177.133V287.886" stroke="#263238" stroke-width="2" stroke-miterlimit="10"/>
<path d="M67.3921 271.232L63.7244 266.448" stroke="#263238" stroke-width="2" stroke-miterlimit="10"/>
<path d="M64.8405 267.883C64.9019 267.216 64.8198 266.544 64.5997 265.911C64.3797 265.279 64.0268 264.7 63.5648 264.215C62.608 263.162 57.2832 260.243 56.5482 262.135C55.7509 264.215 61.0133 269.013 64.8405 267.883Z" fill="#A0C97B" stroke="#263238" stroke-miterlimit="10"/>
<path d="M64.8406 267.883L59.8833 264.028" stroke="#263238" stroke-width="0.5" stroke-miterlimit="10"/>
<path d="M67.3921 250.418L63.7244 245.641" stroke="#263238" stroke-width="2" stroke-miterlimit="10"/>
<path d="M64.8405 247.069C64.9018 246.403 64.8196 245.732 64.5995 245.101C64.3795 244.469 64.0266 243.892 63.5648 243.408C62.608 242.348 57.2832 239.429 56.5482 241.328C55.7509 243.408 61.0133 248.213 64.8405 247.069Z" fill="#A0C97B" stroke="#263238" stroke-miterlimit="10"/>
<path d="M64.8406 247.069L59.8833 243.214" stroke="#263238" stroke-width="0.5" stroke-miterlimit="10"/>
<path d="M67.3921 225.985L63.7244 221.201" stroke="#263238" stroke-width="2" stroke-miterlimit="10"/>
<path d="M64.8405 222.636C64.9019 221.969 64.8198 221.297 64.5997 220.664C64.3797 220.032 64.0268 219.453 63.5648 218.969C62.608 217.915 57.2832 214.996 56.5482 216.889C55.7509 218.969 61.0133 223.753 64.8405 222.636Z" fill="#A0C97B" stroke="#263238" stroke-miterlimit="10"/>
<path d="M64.8406 222.636L59.8833 218.781" stroke="#263238" stroke-width="0.5" stroke-miterlimit="10"/>
<path d="M67.3921 209.719L63.7244 204.935" stroke="#263238" stroke-width="2" stroke-miterlimit="10"/>
<path d="M64.8405 206.371C64.9019 205.704 64.8198 205.031 64.5997 204.399C64.3797 203.766 64.0268 203.188 63.5648 202.703C62.608 201.649 57.2832 198.723 56.5482 200.623C55.7509 202.703 61.0133 207.487 64.8405 206.371Z" fill="#A0C97B" stroke="#263238" stroke-miterlimit="10"/>
<path d="M64.8406 206.371L59.8833 202.516" stroke="#263238" stroke-width="0.5" stroke-miterlimit="10"/>
<path d="M67.3921 193.378L63.7244 188.601" stroke="#263238" stroke-width="2" stroke-miterlimit="10"/>
<path d="M64.8405 190.036C64.9019 189.369 64.8198 188.696 64.5997 188.064C64.3797 187.431 64.0268 186.853 63.5648 186.368C62.608 185.314 57.2832 182.388 56.5482 184.288C55.7509 186.368 61.0133 191.152 64.8405 190.036Z" fill="#A0C97B" stroke="#263238" stroke-miterlimit="10"/>
<path d="M64.8406 190.036L59.8833 186.181" stroke="#263238" stroke-width="0.5" stroke-miterlimit="10"/>
<path d="M67.3088 277.59L70.9766 272.806" stroke="#263238" stroke-width="2" stroke-miterlimit="10"/>
<path d="M69.8603 274.241C69.799 273.574 69.8811 272.902 70.1011 272.269C70.3211 271.636 70.674 271.058 71.136 270.573C72.0928 269.519 77.4176 266.594 78.1526 268.493C78.9499 270.573 73.6875 275.357 69.8603 274.241Z" fill="#A0C97B" stroke="#263238" stroke-miterlimit="10"/>
<path d="M69.8604 274.241L75.1089 270.178" stroke="#263238" stroke-width="0.5" stroke-miterlimit="10"/>
<path d="M67.3088 244.49L70.9766 239.706" stroke="#263238" stroke-width="2" stroke-miterlimit="10"/>
<path d="M69.8603 241.141C69.799 240.474 69.8811 239.802 70.1011 239.169C70.3211 238.537 70.674 237.959 71.136 237.474C72.0928 236.42 77.4176 233.494 78.1526 235.394C78.9499 237.474 73.6875 242.258 69.8603 241.141Z" fill="#A0C97B" stroke="#263238" stroke-miterlimit="10"/>
<path d="M69.8604 241.141L75.1089 237.078" stroke="#263238" stroke-width="0.5" stroke-miterlimit="10"/>
<path d="M67.3088 228.148L70.9766 223.364" stroke="#263238" stroke-width="2" stroke-miterlimit="10"/>
<path d="M69.8603 224.799C69.799 224.132 69.8811 223.46 70.1011 222.827C70.3211 222.195 70.674 221.617 71.136 221.132C72.0928 220.078 77.4176 217.159 78.1526 219.052C78.9499 221.132 73.6875 225.916 69.8603 224.799Z" fill="#A0C97B" stroke="#263238" stroke-miterlimit="10"/>
<path d="M69.8604 224.799L75.1089 220.737" stroke="#263238" stroke-width="0.5" stroke-miterlimit="10"/>
<path d="M67.3088 206.558L70.9766 201.774" stroke="#263238" stroke-width="2" stroke-miterlimit="10"/>
<path d="M69.8603 203.209C69.799 202.542 69.8811 201.87 70.1011 201.237C70.3211 200.604 70.674 200.026 71.136 199.541C72.0928 198.487 77.4176 195.562 78.1526 197.461C78.9499 199.541 73.6875 204.325 69.8603 203.209Z" fill="#A0C97B" stroke="#263238" stroke-miterlimit="10"/>
<path d="M69.8604 203.209L75.1089 199.146" stroke="#263238" stroke-width="0.5" stroke-miterlimit="10"/>
<path d="M67.3088 189.578L70.9766 184.794" stroke="#263238" stroke-width="2" stroke-miterlimit="10"/>
<path d="M69.8603 186.229C69.799 185.562 69.8811 184.89 70.1011 184.257C70.3211 183.625 70.674 183.046 71.136 182.562C72.0928 181.508 77.4176 178.589 78.1526 180.482C78.9499 182.562 73.6875 187.346 69.8603 186.229Z" fill="#A0C97B" stroke="#263238" stroke-miterlimit="10"/>
<path d="M69.8604 186.229L75.1089 182.166" stroke="#263238" stroke-width="0.5" stroke-miterlimit="10"/>
<path d="M67.0941 178.7C67.0323 178.033 67.1135 177.361 67.3323 176.729C67.5511 176.096 67.9025 175.518 68.3629 175.032C69.3266 173.978 74.6445 171.059 75.3794 172.952C76.1767 175.032 70.9143 179.816 67.0941 178.7Z" fill="#A0C97B" stroke="#263238" stroke-miterlimit="10"/>
<path d="M67.094 178.7L72.3356 174.637" stroke="#263238" stroke-width="0.5" stroke-miterlimit="10"/>
<path d="M67.3434 178.929C66.6741 178.92 66.0145 178.767 65.4092 178.481C64.8039 178.195 64.2671 177.783 63.8352 177.271C62.8853 176.211 60.5349 170.609 62.5109 170.082C64.6533 169.506 68.8549 175.24 67.3434 178.929Z" fill="#A0C97B" stroke="#263238" stroke-miterlimit="10"/>
<path d="M67.3437 178.929L63.8562 173.285" stroke="#263238" stroke-width="0.5" stroke-miterlimit="10"/>
<path d="M71.8572 316.611H60.133L58.6631 286.984H73.3271L71.8572 316.611Z" fill="#263238" stroke="#263238" stroke-miterlimit="10"/>
<path d="M446.583 200.741L455.721 288.309" stroke="#263238" stroke-width="2" stroke-miterlimit="10"/>
<path d="M454.251 271.551L450.105 267.176" stroke="#263238" stroke-width="2" stroke-miterlimit="10"/>
<path d="M451.36 268.486C451.352 267.817 451.2 267.156 450.916 266.55C450.631 265.944 450.22 265.405 449.71 264.971C448.649 264.021 443.047 261.671 442.52 263.64C441.945 265.782 447.679 269.998 451.36 268.486Z" fill="#A0C97B" stroke="#263238" stroke-miterlimit="10"/>
<path d="M451.367 268.486L446.035 265.165" stroke="#263238" stroke-width="0.5" stroke-miterlimit="10"/>
<path d="M455.291 281.514L451.145 277.139" stroke="#263238" stroke-width="2" stroke-miterlimit="10"/>
<path d="M452.407 278.45C452.399 277.78 452.248 277.119 451.963 276.513C451.678 275.907 451.267 275.368 450.757 274.934C449.689 273.985 444.094 271.627 443.567 273.596C442.985 275.746 448.718 279.954 452.407 278.45Z" fill="#A0C97B" stroke="#263238" stroke-miterlimit="10"/>
<path d="M452.407 278.45L447.075 275.129" stroke="#263238" stroke-width="0.5" stroke-miterlimit="10"/>
<path d="M451.714 247.25L447.568 242.875" stroke="#263238" stroke-width="2" stroke-miterlimit="10"/>
<path d="M448.829 244.185C448.821 243.515 448.669 242.855 448.385 242.249C448.1 241.642 447.689 241.104 447.179 240.67C446.118 239.72 440.516 237.363 439.989 239.339C439.414 241.481 445.12 245.69 448.829 244.185Z" fill="#A0C97B" stroke="#263238" stroke-miterlimit="10"/>
<path d="M448.829 244.185L443.498 240.864" stroke="#263238" stroke-width="0.5" stroke-miterlimit="10"/>
<path d="M452.754 257.206L448.608 252.831" stroke="#263238" stroke-width="2" stroke-miterlimit="10"/>
<path d="M449.869 254.141C449.861 253.472 449.71 252.811 449.425 252.205C449.14 251.599 448.729 251.06 448.219 250.626C447.158 249.676 441.556 247.326 441.029 249.295C440.447 251.437 446.181 255.653 449.869 254.141Z" fill="#A0C97B" stroke="#263238" stroke-miterlimit="10"/>
<path d="M449.869 254.141L444.538 250.82" stroke="#263238" stroke-width="0.5" stroke-miterlimit="10"/>
<path d="M450.022 231.067L445.883 226.692" stroke="#263238" stroke-width="2" stroke-miterlimit="10"/>
<path d="M447.138 228.003C447.129 227.334 446.978 226.674 446.695 226.068C446.412 225.462 446.002 224.923 445.494 224.487C444.427 223.544 438.831 221.187 438.298 223.156C437.722 225.333 443.449 229.493 447.138 228.003Z" fill="#A0C97B" stroke="#263238" stroke-miterlimit="10"/>
<path d="M447.138 228.003L441.813 224.682" stroke="#263238" stroke-width="0.5" stroke-miterlimit="10"/>
<path d="M448.33 214.822L444.184 210.447" stroke="#263238" stroke-width="2" stroke-miterlimit="10"/>
<path d="M445.446 211.758C445.438 211.088 445.286 210.428 445.002 209.822C444.717 209.215 444.306 208.677 443.796 208.243C442.735 207.293 437.133 204.935 436.606 206.911C436.024 209.054 441.758 213.262 445.446 211.758Z" fill="#A0C97B" stroke="#263238" stroke-miterlimit="10"/>
<path d="M445.446 211.758L440.114 208.437" stroke="#263238" stroke-width="0.5" stroke-miterlimit="10"/>
<path d="M453.551 265.658L456.706 260.52" stroke="#263238" stroke-width="2" stroke-miterlimit="10"/>
<path d="M455.742 262.08C455.612 261.423 455.625 260.746 455.778 260.095C455.931 259.443 456.221 258.832 456.63 258.301C457.475 257.15 462.467 253.691 463.39 255.528C464.402 257.476 459.68 262.773 455.742 262.08Z" fill="#A0C97B" stroke="#263238" stroke-miterlimit="10"/>
<path d="M455.742 262.066L460.54 257.476" stroke="#263238" stroke-width="0.5" stroke-miterlimit="10"/>
<path d="M450.819 239.45L453.967 234.312" stroke="#263238" stroke-width="2" stroke-miterlimit="10"/>
<path d="M453.01 235.858C452.879 235.201 452.89 234.524 453.043 233.872C453.196 233.22 453.488 232.609 453.898 232.079C454.737 230.929 459.729 227.469 460.658 229.306C461.663 231.268 456.907 236.565 453.01 235.858Z" fill="#A0C97B" stroke="#263238" stroke-miterlimit="10"/>
<path d="M453.01 235.858L457.808 231.268" stroke="#263238" stroke-width="0.5" stroke-miterlimit="10"/>
<path d="M449.613 227.933L452.767 222.796" stroke="#263238" stroke-width="2" stroke-miterlimit="10"/>
<path d="M451.804 224.335C451.674 223.678 451.686 223.001 451.839 222.35C451.992 221.698 452.283 221.087 452.691 220.556C453.537 219.412 458.529 215.952 459.451 217.783C460.464 219.745 455.728 225.049 451.804 224.335Z" fill="#A0C97B" stroke="#263238" stroke-miterlimit="10"/>
<path d="M451.804 224.335L456.602 219.752" stroke="#263238" stroke-width="0.5" stroke-miterlimit="10"/>
<path d="M447.852 211.051L451.006 205.913" stroke="#263238" stroke-width="2" stroke-miterlimit="10"/>
<path d="M450.043 207.452C449.913 206.796 449.925 206.119 450.078 205.467C450.231 204.815 450.522 204.204 450.93 203.674C451.776 202.523 456.768 199.063 457.69 200.9C458.702 202.862 453.967 208.166 450.043 207.452Z" fill="#A0C97B" stroke="#263238" stroke-miterlimit="10"/>
<path d="M450.043 207.452L454.841 202.869" stroke="#263238" stroke-width="0.5" stroke-miterlimit="10"/>
<path d="M446.507 200.249C446.377 199.592 446.389 198.915 446.542 198.263C446.695 197.612 446.986 197 447.394 196.47C448.24 195.326 453.232 191.866 454.154 193.697C455.166 195.659 450.431 200.963 446.507 200.249Z" fill="#A0C97B" stroke="#263238" stroke-miterlimit="10"/>
<path d="M446.507 200.249L451.305 195.666" stroke="#263238" stroke-width="0.5" stroke-miterlimit="10"/>
<path d="M446.784 200.45C446.117 200.511 445.444 200.428 444.811 200.207C444.178 199.986 443.6 199.631 443.116 199.167C442.062 198.21 439.15 192.885 441.036 192.15C443.13 191.36 447.893 196.622 446.784 200.45Z" fill="#A0C97B" stroke="#263238" stroke-miterlimit="10"/>
<path d="M446.784 200.45L442.728 195.194" stroke="#263238" stroke-width="0.5" stroke-miterlimit="10"/>
<path d="M470.69 212.798L461.601 300.38" stroke="#263238" stroke-width="2" stroke-miterlimit="10"/>
<path d="M463.611 283.677L460.457 278.54" stroke="#263238" stroke-width="2" stroke-miterlimit="10"/>
<path d="M461.42 280.107C461.55 279.449 461.537 278.772 461.382 278.12C461.228 277.469 460.936 276.858 460.526 276.328C459.68 275.184 454.688 271.724 453.766 273.555C452.747 275.496 457.496 280.8 461.42 280.107Z" fill="#A0C97B" stroke="#263238" stroke-miterlimit="10"/>
<path d="M461.42 280.079L456.886 275.732" stroke="#263238" stroke-width="0.5" stroke-miterlimit="10"/>
<path d="M466.135 259.369L462.98 254.231" stroke="#263238" stroke-width="2" stroke-miterlimit="10"/>
<path d="M463.937 255.778C464.069 255.121 464.057 254.444 463.904 253.792C463.751 253.14 463.46 252.528 463.05 251.999C462.204 250.848 457.212 247.395 456.29 249.226C455.277 251.188 460.02 256.492 463.937 255.778Z" fill="#A0C97B" stroke="#263238" stroke-miterlimit="10"/>
<path d="M463.937 255.778L459.41 251.43" stroke="#263238" stroke-width="0.5" stroke-miterlimit="10"/>
<path d="M465.102 269.332L461.947 264.195" stroke="#263238" stroke-width="2" stroke-miterlimit="10"/>
<path d="M462.904 265.734C463.036 265.077 463.024 264.4 462.871 263.748C462.718 263.096 462.427 262.485 462.017 261.955C461.171 260.811 456.179 257.351 455.257 259.182C454.244 261.151 458.987 266.448 462.904 265.734Z" fill="#A0C97B" stroke="#263238" stroke-miterlimit="10"/>
<path d="M462.904 265.734L458.377 261.387" stroke="#263238" stroke-width="0.5" stroke-miterlimit="10"/>
<path d="M467.813 243.187L464.658 238.056" stroke="#263238" stroke-width="2" stroke-miterlimit="10"/>
<path d="M465.622 239.595C465.751 238.938 465.738 238.261 465.584 237.609C465.43 236.957 465.138 236.346 464.728 235.817C463.882 234.666 458.89 231.213 457.968 233.043C456.962 235.04 461.698 240.309 465.622 239.595Z" fill="#A0C97B" stroke="#263238" stroke-miterlimit="10"/>
<path d="M465.622 239.595L461.088 235.248" stroke="#263238" stroke-width="0.5" stroke-miterlimit="10"/>
<path d="M469.498 226.942L466.343 221.804" stroke="#263238" stroke-width="2" stroke-miterlimit="10"/>
<path d="M467.307 223.343C467.436 222.686 467.423 222.009 467.269 221.357C467.114 220.706 466.822 220.094 466.412 219.565C465.573 218.421 460.581 214.961 459.652 216.791C458.647 218.76 463.383 224.058 467.307 223.343Z" fill="#A0C97B" stroke="#263238" stroke-miterlimit="10"/>
<path d="M467.307 223.343L462.772 218.996" stroke="#263238" stroke-width="0.5" stroke-miterlimit="10"/>
<path d="M464.145 277.763L468.284 273.388" stroke="#263238" stroke-width="2" stroke-miterlimit="10"/>
<path d="M467.022 274.699C467.031 274.029 467.182 273.369 467.467 272.762C467.752 272.156 468.163 271.618 468.673 271.183C469.733 270.234 475.329 267.876 475.862 269.845C476.438 271.988 470.718 276.203 467.022 274.699Z" fill="#A0C97B" stroke="#263238" stroke-miterlimit="10"/>
<path d="M467.022 274.699L472.666 271.197" stroke="#263238" stroke-width="0.5" stroke-miterlimit="10"/>
<path d="M466.863 251.555L471.002 247.173" stroke="#263238" stroke-width="2" stroke-miterlimit="10"/>
<path d="M469.747 248.484C469.753 247.814 469.903 247.154 470.187 246.547C470.47 245.941 470.881 245.403 471.391 244.968C472.451 244.019 478.047 241.661 478.58 243.637C479.163 245.78 473.436 249.988 469.747 248.484Z" fill="#A0C97B" stroke="#263238" stroke-miterlimit="10"/>
<path d="M469.747 248.484L475.384 244.989" stroke="#263238" stroke-width="0.5" stroke-miterlimit="10"/>
<path d="M468.056 240.032L472.195 235.657" stroke="#263238" stroke-width="2" stroke-miterlimit="10"/>
<path d="M470.94 236.967C470.948 236.298 471.1 235.638 471.384 235.031C471.669 234.425 472.08 233.887 472.59 233.452C473.651 232.502 479.246 230.145 479.78 232.114C480.355 234.257 474.628 238.507 470.94 236.967Z" fill="#A0C97B" stroke="#263238" stroke-miterlimit="10"/>
<path d="M470.94 236.967L476.577 233.466" stroke="#263238" stroke-width="0.5" stroke-miterlimit="10"/>
<path d="M469.81 223.149L473.949 218.767" stroke="#263238" stroke-width="2" stroke-miterlimit="10"/>
<path d="M472.694 220.085C472.7 219.415 472.849 218.755 473.133 218.148C473.416 217.542 473.827 217.003 474.337 216.57C475.405 215.613 481 213.255 481.527 215.231C482.109 217.374 476.382 221.589 472.694 220.085Z" fill="#A0C97B" stroke="#263238" stroke-miterlimit="10"/>
<path d="M472.694 220.085L478.331 216.583" stroke="#263238" stroke-width="0.5" stroke-miterlimit="10"/>
<path d="M470.711 212.306C470.719 211.636 470.871 210.976 471.155 210.369C471.44 209.763 471.851 209.225 472.361 208.79C473.422 207.841 479.017 205.483 479.551 207.452C480.133 209.595 474.406 213.81 470.711 212.306Z" fill="#A0C97B" stroke="#263238" stroke-miterlimit="10"/>
<path d="M470.711 212.306L476.355 208.804" stroke="#263238" stroke-width="0.5" stroke-miterlimit="10"/>
<path d="M470.947 212.555C470.281 212.478 469.64 212.259 469.066 211.913C468.492 211.568 467.999 211.103 467.619 210.551C466.787 209.394 465.033 203.583 467.043 203.258C469.241 202.911 472.853 209.047 470.947 212.555Z" fill="#A0C97B" stroke="#263238" stroke-miterlimit="10"/>
<path d="M470.947 212.555L468.056 206.586" stroke="#263238" stroke-width="0.5" stroke-miterlimit="10"/>
<path d="M460.276 177.133V287.886" stroke="#263238" stroke-width="2" stroke-miterlimit="10"/>
<path d="M460.36 271.232L456.699 266.448" stroke="#263238" stroke-width="2" stroke-miterlimit="10"/>
<path d="M457.815 267.883C457.876 267.216 457.794 266.544 457.574 265.911C457.354 265.279 457.001 264.7 456.539 264.215C455.576 263.162 450.258 260.243 449.523 262.135C448.726 264.215 453.988 269.013 457.815 267.883Z" fill="#A0C97B" stroke="#263238" stroke-miterlimit="10"/>
<path d="M457.815 267.883L452.858 264.028" stroke="#263238" stroke-width="0.5" stroke-miterlimit="10"/>
<path d="M460.36 250.418L456.699 245.641" stroke="#263238" stroke-width="2" stroke-miterlimit="10"/>
<path d="M457.815 247.069C457.876 246.403 457.794 245.732 457.574 245.101C457.354 244.469 457.001 243.892 456.539 243.408C455.576 242.348 450.258 239.429 449.523 241.328C448.726 243.408 453.988 248.213 457.815 247.069Z" fill="#A0C97B" stroke="#263238" stroke-miterlimit="10"/>
<path d="M457.815 247.069L452.858 243.214" stroke="#263238" stroke-width="0.5" stroke-miterlimit="10"/>
<path d="M460.36 225.985L456.699 221.201" stroke="#263238" stroke-width="2" stroke-miterlimit="10"/>
<path d="M457.815 222.636C457.876 221.969 457.794 221.297 457.574 220.664C457.354 220.032 457.001 219.453 456.539 218.969C455.576 217.915 450.258 214.996 449.523 216.889C448.726 218.969 453.988 223.753 457.815 222.636Z" fill="#A0C97B" stroke="#263238" stroke-miterlimit="10"/>
<path d="M457.815 222.636L452.858 218.781" stroke="#263238" stroke-width="0.5" stroke-miterlimit="10"/>
<path d="M460.36 209.719L456.699 204.935" stroke="#263238" stroke-width="2" stroke-miterlimit="10"/>
<path d="M457.815 206.371C457.876 205.704 457.794 205.031 457.574 204.399C457.354 203.766 457.001 203.188 456.539 202.703C455.576 201.649 450.258 198.723 449.523 200.623C448.726 202.703 453.988 207.487 457.815 206.371Z" fill="#A0C97B" stroke="#263238" stroke-miterlimit="10"/>
<path d="M457.815 206.371L452.858 202.516" stroke="#263238" stroke-width="0.5" stroke-miterlimit="10"/>
<path d="M460.36 193.378L456.699 188.601" stroke="#263238" stroke-width="2" stroke-miterlimit="10"/>
<path d="M457.815 190.036C457.876 189.369 457.794 188.696 457.574 188.064C457.354 187.431 457.001 186.853 456.539 186.368C455.576 185.314 450.258 182.388 449.523 184.288C448.726 186.368 453.988 191.152 457.815 190.036Z" fill="#A0C97B" stroke="#263238" stroke-miterlimit="10"/>
<path d="M457.815 190.036L452.858 186.181" stroke="#263238" stroke-width="0.5" stroke-miterlimit="10"/>
<path d="M460.283 277.59L463.951 272.806" stroke="#263238" stroke-width="2" stroke-miterlimit="10"/>
<path d="M462.835 274.241C462.773 273.574 462.855 272.902 463.075 272.269C463.296 271.636 463.648 271.058 464.11 270.573C465.067 269.519 470.392 266.594 471.12 268.493C471.917 270.573 466.655 275.357 462.835 274.241Z" fill="#A0C97B" stroke="#263238" stroke-miterlimit="10"/>
<path d="M462.835 274.241L468.083 270.178" stroke="#263238" stroke-width="0.5" stroke-miterlimit="10"/>
<path d="M460.283 244.49L463.951 239.706" stroke="#263238" stroke-width="2" stroke-miterlimit="10"/>
<path d="M462.835 241.141C462.773 240.474 462.855 239.802 463.075 239.169C463.296 238.537 463.648 237.959 464.11 237.474C465.067 236.42 470.392 233.494 471.12 235.394C471.917 237.474 466.655 242.258 462.835 241.141Z" fill="#A0C97B" stroke="#263238" stroke-miterlimit="10"/>
<path d="M462.835 241.141L468.083 237.078" stroke="#263238" stroke-width="0.5" stroke-miterlimit="10"/>
<path d="M460.283 228.148L463.951 223.364" stroke="#263238" stroke-width="2" stroke-miterlimit="10"/>
<path d="M462.835 224.799C462.773 224.132 462.855 223.46 463.075 222.827C463.296 222.195 463.648 221.617 464.11 221.132C465.067 220.078 470.392 217.159 471.12 219.052C471.917 221.132 466.655 225.916 462.835 224.799Z" fill="#A0C97B" stroke="#263238" stroke-miterlimit="10"/>
<path d="M462.835 224.799L468.083 220.737" stroke="#263238" stroke-width="0.5" stroke-miterlimit="10"/>
<path d="M460.283 206.558L463.951 201.774" stroke="#263238" stroke-width="2" stroke-miterlimit="10"/>
<path d="M462.835 203.209C462.773 202.542 462.855 201.87 463.075 201.237C463.296 200.604 463.648 200.026 464.11 199.541C465.067 198.487 470.392 195.562 471.12 197.461C471.917 199.541 466.655 204.325 462.835 203.209Z" fill="#A0C97B" stroke="#263238" stroke-miterlimit="10"/>
<path d="M462.835 203.209L468.083 199.146" stroke="#263238" stroke-width="0.5" stroke-miterlimit="10"/>
<path d="M460.283 189.578L463.951 184.794" stroke="#263238" stroke-width="2" stroke-miterlimit="10"/>
<path d="M462.835 186.229C462.773 185.562 462.855 184.89 463.075 184.257C463.296 183.625 463.648 183.046 464.11 182.562C465.067 181.508 470.392 178.589 471.12 180.482C471.917 182.562 466.655 187.346 462.835 186.229Z" fill="#A0C97B" stroke="#263238" stroke-miterlimit="10"/>
<path d="M462.835 186.229L468.083 182.166" stroke="#263238" stroke-width="0.5" stroke-miterlimit="10"/>
<path d="M460.061 178.7C460 178.033 460.082 177.36 460.302 176.728C460.522 176.095 460.875 175.517 461.337 175.032C462.294 173.978 467.619 171.059 468.354 172.952C469.151 175.032 463.889 179.816 460.061 178.7Z" fill="#A0C97B" stroke="#263238" stroke-miterlimit="10"/>
<path d="M460.062 178.7L465.31 174.637" stroke="#263238" stroke-width="0.5" stroke-miterlimit="10"/>
<path d="M460.318 178.929C459.648 178.92 458.987 178.767 458.38 178.481C457.774 178.196 457.236 177.783 456.803 177.271C455.86 176.211 453.509 170.609 455.478 170.082C457.6 169.506 461.829 175.24 460.318 178.929Z" fill="#A0C97B" stroke="#263238" stroke-miterlimit="10"/>
<path d="M460.318 178.929L456.831 173.285" stroke="#263238" stroke-width="0.5" stroke-miterlimit="10"/>
<path d="M464.832 316.611H453.1L451.637 286.984H466.294L464.832 316.611Z" fill="#263238" stroke="#263238" stroke-miterlimit="10"/>
<path d="M469.387 82.5068C469.388 78.5673 468.441 74.6855 466.625 71.1898C464.809 67.694 462.177 64.6872 458.953 62.424C455.728 60.1607 452.006 58.7075 448.101 58.1873C444.196 57.6672 440.224 58.0955 436.519 59.4359C432.815 60.7763 429.488 62.9894 426.82 65.8879C424.152 68.7864 422.222 72.2849 421.192 76.0875C420.163 79.89 420.065 83.8845 420.906 87.733C421.747 91.5816 423.503 95.1708 426.026 98.1969C429.637 102.526 431.615 107.986 431.614 113.624V116.979H458.085V113.624C458.07 107.995 460.034 102.539 463.632 98.2107C467.338 93.8161 469.376 88.2554 469.387 82.5068Z" fill="white" stroke="#263238" stroke-linecap="round" stroke-linejoin="round"/>
<path d="M458.085 116.986H431.579V123.545H458.085V116.986Z" fill="#A0C97B" stroke="#263238" stroke-linecap="round" stroke-linejoin="round"/>
<path d="M431.579 123.559H458.085V126.838C458.085 127.708 457.74 128.542 457.125 129.157C456.51 129.772 455.676 130.118 454.806 130.118H434.852C433.982 130.118 433.148 129.772 432.533 129.157C431.918 128.542 431.572 127.708 431.572 126.838V123.559H431.579Z" fill="#A0C97B" stroke="#263238" stroke-linecap="round" stroke-linejoin="round"/>
<path d="M434.921 130.111H454.737V132.191C454.737 133.37 454.268 134.5 453.435 135.334C452.601 136.167 451.471 136.635 450.292 136.635H439.365C438.187 136.635 437.056 136.167 436.223 135.334C435.389 134.5 434.921 133.37 434.921 132.191V130.111Z" fill="#263238" stroke="#263238" stroke-linecap="round" stroke-linejoin="round"/>
<path d="M472.833 82.6384H484.065" stroke="#263238" stroke-linecap="round" stroke-linejoin="round"/>
<path d="M404.546 82.6384H415.924" stroke="#263238" stroke-linecap="round" stroke-linejoin="round"/>
<path d="M444.309 54.1424V42.8827" stroke="#263238" stroke-linecap="round" stroke-linejoin="round"/>
<path d="M464.665 62.2753L472.417 54.5238" stroke="#263238" stroke-linecap="round" stroke-linejoin="round"/>
<path d="M416.194 110.746L424.056 102.884" stroke="#263238" stroke-linecap="round" stroke-linejoin="round"/>
<path d="M423.724 62.0534L416.194 54.5238" stroke="#263238" stroke-linecap="round" stroke-linejoin="round"/>
<path d="M472.417 110.746L464.922 103.251" stroke="#263238" stroke-linecap="round" stroke-linejoin="round"/>
<path d="M299.901 74.2698L267.446 29.3904L234.985 74.2698H248.338V124.127H286.555V74.2698H299.901Z" fill="#A0C97B" stroke="#263238" stroke-linecap="round" stroke-linejoin="round"/>
<path d="M272.555 150.971C290.798 148.023 303.197 130.844 300.249 112.601C297.301 94.358 280.122 81.9592 261.879 84.9073C243.636 87.8555 231.237 105.034 234.185 123.277C237.133 141.52 254.312 153.919 272.555 150.971Z" fill="white" stroke="#263238" stroke-linecap="round" stroke-linejoin="round"/>
<path d="M292.697 130.786C299.79 116.72 294.138 99.5676 280.071 92.4747C266.005 85.3817 248.853 91.0345 241.76 105.101C234.667 119.167 240.32 136.319 254.386 143.412C268.452 150.505 285.604 144.853 292.697 130.786Z" fill="white" stroke="#263238" stroke-linecap="round" stroke-linejoin="round"/>
<path d="M276.744 122.214C276.744 114.747 266.164 114.587 266.164 111.467C266.164 109.831 267.023 109.339 268.791 109.339C270.31 109.339 271.565 109.99 273.055 111.308L276.522 107.286C274.91 105.463 272.727 104.241 270.331 103.82V99.6597H265.755V104C261.803 104.853 259.438 107.668 259.438 111.814C259.438 118.997 270.019 119.44 270.019 122.727C270.019 124.328 269.201 125.022 267.148 125.022C265.429 125.022 263.682 124.37 261.491 122.727L258.454 127.483C260.535 129.203 263.072 130.28 265.755 130.582V134.701H270.351V130.291C274.629 129.251 276.744 126.187 276.744 122.214Z" fill="#A0C97B" stroke="#263238" stroke-linecap="round" stroke-linejoin="round"/>
<path d="M101.643 93.8346C113.481 91.6875 121.337 80.3502 119.19 68.5121C117.043 56.674 105.706 48.8178 93.8677 50.9649C82.0296 53.112 74.1734 64.4492 76.3205 76.2874C78.4676 88.1255 89.8049 95.9817 101.643 93.8346Z" fill="white" stroke="#263238" stroke-linecap="round" stroke-linejoin="round"/>
<path d="M103.91 51.5216L97.76 72.4048H119.545C119.542 67.7026 118.018 63.1273 115.2 59.3631C112.382 55.5989 108.421 52.848 103.91 51.5216Z" fill="#A0C97B" stroke="#263238" stroke-linecap="round" stroke-linejoin="round"/>
<path d="M111.287 58.6629L119.933 48.4709H127.351" stroke="#263238" stroke-width="0.5" stroke-linecap="round" stroke-linejoin="round"/>
<path d="M132.607 48.776H143.728" stroke="#263238" stroke-width="0.5" stroke-linecap="round" stroke-linejoin="round"/>
<path d="M132.607 51.5563H143.728" stroke="#263238" stroke-width="0.5" stroke-linecap="round" stroke-linejoin="round"/>
<path d="M132.607 54.3365H143.728" stroke="#263238" stroke-width="0.5" stroke-linecap="round" stroke-linejoin="round"/>
<path d="M132.607 57.1168H143.728" stroke="#263238" stroke-width="0.5" stroke-linecap="round" stroke-linejoin="round"/>
<path d="M76.9184 117.222H70.5813V136.129H76.9184V117.222Z" fill="#263238" stroke="#263238" stroke-width="0.5" stroke-linecap="round" stroke-linejoin="round"/>
<path d="M86.8747 124.023H80.5376V136.129H86.8747V124.023Z" fill="#A0C97B" stroke="#263238" stroke-linecap="round" stroke-linejoin="round"/>
<path d="M96.8378 113.083H90.5007V136.129H96.8378V113.083Z" fill="#263238" stroke="#263238" stroke-width="0.5" stroke-linecap="round" stroke-linejoin="round"/>
<path d="M106.801 117.853H100.464V136.136H106.801V117.853Z" fill="#A0C97B" stroke="#263238" stroke-linecap="round" stroke-linejoin="round"/>
<path d="M116.757 113.672H110.42V136.129H116.757V113.672Z" fill="#263238" stroke="#263238" stroke-width="0.5" stroke-linecap="round" stroke-linejoin="round"/>
<path d="M126.721 100.367H120.384V136.136H126.721V100.367Z" fill="#A0C97B" stroke="#263238" stroke-linecap="round" stroke-linejoin="round"/>
<path d="M133.841 99.9926H137.55" stroke="#263238" stroke-width="0.5" stroke-linecap="round" stroke-linejoin="round"/>
<path d="M133.841 107.217H137.55" stroke="#263238" stroke-width="0.5" stroke-linecap="round" stroke-linejoin="round"/>
<path d="M133.841 114.448H137.55" stroke="#263238" stroke-width="0.5" stroke-linecap="round" stroke-linejoin="round"/>
<path d="M133.841 121.68H137.55" stroke="#263238" stroke-width="0.5" stroke-linecap="round" stroke-linejoin="round"/>
<path d="M133.841 128.911H137.55" stroke="#263238" stroke-width="0.5" stroke-linecap="round" stroke-linejoin="round"/>
<path d="M133.841 136.136H137.55" stroke="#263238" stroke-width="0.5" stroke-linecap="round" stroke-linejoin="round"/>
<path d="M74.2075 110.254L83.9142 116.126L94.0161 105.31L103.993 106.149L113.658 102.315L124.599 87.9216" stroke="#263238" stroke-linecap="round" stroke-linejoin="round"/>
<path d="M75.4278 110.24C75.4278 109.997 75.3556 109.759 75.2205 109.557C75.0853 109.356 74.8933 109.198 74.6686 109.106C74.444 109.013 74.1969 108.989 73.9586 109.037C73.7204 109.085 73.5017 109.202 73.3304 109.375C73.159 109.547 73.0427 109.766 72.9961 110.005C72.9496 110.243 72.9749 110.49 73.0688 110.714C73.1628 110.939 73.3211 111.13 73.5238 111.264C73.7266 111.398 73.9645 111.469 74.2075 111.467C74.3684 111.467 74.5276 111.435 74.6761 111.374C74.8246 111.312 74.9594 111.221 75.0728 111.107C75.1862 110.993 75.276 110.858 75.3369 110.709C75.3978 110.56 75.4287 110.401 75.4278 110.24Z" fill="#263238"/>
<path d="M85.1414 116.126C85.1414 115.884 85.0694 115.646 84.9346 115.445C84.7997 115.243 84.6081 115.085 84.3838 114.993C84.1596 114.9 83.9129 114.875 83.6748 114.923C83.4367 114.97 83.2181 115.087 83.0465 115.259C82.8748 115.43 82.7579 115.649 82.7106 115.887C82.6632 116.125 82.6875 116.372 82.7804 116.596C82.8733 116.82 83.0306 117.012 83.2324 117.147C83.4342 117.282 83.6715 117.354 83.9142 117.354C84.0756 117.354 84.2356 117.323 84.3849 117.262C84.5342 117.201 84.6699 117.11 84.784 116.996C84.8982 116.882 84.9885 116.746 85.0499 116.597C85.1112 116.448 85.1423 116.288 85.1414 116.126Z" fill="#263238"/>
<path d="M95.2361 105.31C95.2361 105.067 95.164 104.83 95.0288 104.628C94.8937 104.426 94.7016 104.269 94.4769 104.176C94.2523 104.083 94.0052 104.059 93.767 104.107C93.5287 104.155 93.3101 104.273 93.1387 104.445C92.9674 104.617 92.851 104.837 92.8045 105.075C92.7579 105.314 92.7832 105.561 92.8772 105.785C92.9711 106.009 93.1295 106.2 93.3322 106.334C93.5349 106.468 93.7729 106.539 94.0159 106.538C94.1767 106.538 94.3359 106.506 94.4844 106.444C94.633 106.382 94.7678 106.292 94.8812 106.178C94.9946 106.064 95.0843 105.928 95.1453 105.78C95.2062 105.631 95.2371 105.471 95.2361 105.31Z" fill="#263238"/>
<path d="M105.213 106.149C105.213 105.906 105.141 105.669 105.006 105.467C104.871 105.265 104.679 105.108 104.454 105.015C104.229 104.922 103.982 104.898 103.744 104.946C103.506 104.994 103.287 105.112 103.116 105.284C102.944 105.456 102.828 105.676 102.782 105.914C102.735 106.153 102.76 106.4 102.854 106.624C102.948 106.848 103.107 107.039 103.309 107.173C103.512 107.307 103.75 107.378 103.993 107.376C104.154 107.377 104.313 107.345 104.462 107.283C104.61 107.221 104.745 107.131 104.858 107.017C104.972 106.903 105.061 106.767 105.122 106.618C105.183 106.47 105.214 106.31 105.213 106.149Z" fill="#263238"/>
<path d="M114.885 102.121C114.885 101.878 114.813 101.641 114.678 101.439C114.544 101.237 114.352 101.08 114.128 100.987C113.903 100.894 113.657 100.87 113.419 100.917C113.181 100.965 112.962 101.082 112.79 101.253C112.619 101.425 112.502 101.644 112.454 101.882C112.407 102.12 112.431 102.366 112.524 102.591C112.617 102.815 112.774 103.007 112.976 103.141C113.178 103.276 113.415 103.348 113.658 103.348C113.984 103.348 114.296 103.219 114.526 102.989C114.756 102.759 114.885 102.446 114.885 102.121Z" fill="#263238"/>
<path d="M125.819 87.9216C125.819 87.6786 125.747 87.4411 125.612 87.2391C125.477 87.0372 125.285 86.8799 125.06 86.7872C124.835 86.6945 124.588 86.6706 124.35 86.7186C124.112 86.7665 123.893 86.884 123.722 87.0564C123.55 87.2287 123.434 87.448 123.387 87.6865C123.341 87.925 123.366 88.172 123.46 88.3961C123.554 88.6202 123.712 88.8114 123.915 88.9454C124.118 89.0794 124.356 89.1502 124.599 89.1488C124.923 89.147 125.234 89.0169 125.462 88.787C125.691 88.557 125.819 88.2459 125.819 87.9216Z" fill="#263238"/>
<path d="M367.46 286.638H371.412V248.56H367.46V286.638Z" fill="#263238" stroke="#263238" stroke-linecap="round" stroke-linejoin="round"/>
<path d="M387.142 249.897L394.111 250.712L398.533 212.892L391.564 212.077L387.142 249.897Z" fill="#263238" stroke="#263238" stroke-linecap="round" stroke-linejoin="round"/>
<path d="M364.416 288.198V281.778H374.449V288.253L414.579 304.359V311.958H411.84V306.183L369.29 296.497L327.864 306.183V311.958H325.201V304.359L364.416 288.198Z" fill="#8C8C8C" stroke="#263238" stroke-linecap="round" stroke-linejoin="round"/>
<path d="M359.556 260.721H379.316V248.56H359.556V260.721Z" fill="#263238" stroke="#263238" stroke-linecap="round" stroke-linejoin="round"/>
<path d="M414.614 312.263C414.614 311.421 414.863 310.598 415.331 309.898C415.8 309.197 416.465 308.652 417.243 308.33C418.021 308.008 418.878 307.924 419.704 308.089C420.53 308.254 421.288 308.66 421.883 309.256C422.478 309.852 422.883 310.611 423.047 311.437C423.21 312.263 423.125 313.12 422.802 313.897C422.478 314.675 421.932 315.34 421.231 315.806C420.53 316.273 419.706 316.522 418.864 316.521C418.305 316.521 417.752 316.41 417.236 316.196C416.72 315.982 416.251 315.669 415.856 315.273C415.461 314.878 415.148 314.408 414.935 313.892C414.722 313.376 414.613 312.822 414.614 312.263Z" fill="#263238" stroke="#263238" stroke-linecap="round" stroke-linejoin="round"/>
<path d="M417.005 312.263C417.005 311.903 417.112 311.55 417.313 311.25C417.513 310.951 417.798 310.717 418.131 310.579C418.464 310.441 418.831 310.405 419.185 310.475C419.538 310.545 419.863 310.719 420.118 310.974C420.373 311.229 420.547 311.554 420.617 311.908C420.688 312.261 420.652 312.628 420.514 312.961C420.375 313.294 420.142 313.579 419.842 313.78C419.542 313.98 419.189 314.087 418.829 314.087C418.345 314.087 417.881 313.895 417.539 313.553C417.197 313.211 417.005 312.747 417.005 312.263Z" fill="white" stroke="#263238" stroke-linecap="round" stroke-linejoin="round"/>
<path d="M316.382 312.263C316.382 311.421 316.632 310.598 317.1 309.898C317.567 309.198 318.232 308.653 319.01 308.33C319.788 308.008 320.644 307.924 321.47 308.088C322.295 308.252 323.054 308.658 323.649 309.253C324.245 309.849 324.65 310.607 324.814 311.433C324.979 312.259 324.894 313.115 324.572 313.893C324.25 314.67 323.704 315.335 323.004 315.803C322.304 316.271 321.481 316.52 320.639 316.52C319.51 316.52 318.427 316.072 317.629 315.274C316.831 314.475 316.382 313.392 316.382 312.263Z" fill="#263238" stroke="#263238" stroke-linecap="round" stroke-linejoin="round"/>
<path d="M320.639 314.087C321.646 314.087 322.462 313.271 322.462 312.263C322.462 311.256 321.646 310.44 320.639 310.44C319.632 310.44 318.815 311.256 318.815 312.263C318.815 313.271 319.632 314.087 320.639 314.087Z" fill="white" stroke="#263238" stroke-linecap="round" stroke-linejoin="round"/>
<path d="M367.606 312.18H370.947L372.625 289.377H365.935L367.606 312.18Z" fill="#8C8C8C" stroke="#263238" stroke-linecap="round" stroke-linejoin="round"/>
<path d="M367.765 316.735H371.107V307.313H367.765V316.735Z" fill="#263238" stroke="#263238" stroke-linecap="round" stroke-linejoin="round"/>
<path d="M395.755 231.06C397.705 231.249 399.673 231.051 401.546 230.479C403.42 229.907 405.162 228.971 406.674 227.725C408.186 226.479 409.437 224.948 410.357 223.218C411.277 221.488 411.847 219.594 412.034 217.644L416.694 169.173C417.072 165.236 415.872 161.309 413.356 158.256C410.84 155.203 407.215 153.275 403.278 152.894C399.339 152.517 395.412 153.719 392.36 156.236C389.307 158.753 387.379 162.379 386.998 166.317L382.332 214.85C381.971 218.778 383.181 222.689 385.696 225.727C388.212 228.765 391.829 230.683 395.755 231.06Z" fill="#8C8C8C" stroke="#263238" stroke-linecap="round" stroke-linejoin="round"/>
<path d="M392.219 230.721C396.156 231.099 400.083 229.899 403.136 227.383C406.189 224.867 408.117 221.242 408.498 217.305L413.164 168.771C413.531 164.839 412.324 160.922 409.808 157.879C407.292 154.835 403.672 152.913 399.741 152.533C397.791 152.346 395.824 152.545 393.951 153.118C392.077 153.691 390.336 154.627 388.824 155.874C387.313 157.12 386.063 158.652 385.144 160.382C384.225 162.112 383.656 164.006 383.469 165.956L378.803 214.448C378.424 218.385 379.625 222.311 382.141 225.363C384.657 228.414 388.282 230.342 392.219 230.721Z" fill="#8C8C8C" stroke="#263238" stroke-linecap="round" stroke-linejoin="round"/>
<path d="M327.316 252.373L396.899 254.204C397.285 254.216 397.67 254.152 398.031 254.015C398.392 253.878 398.723 253.672 399.004 253.407C399.286 253.142 399.512 252.825 399.671 252.473C399.829 252.12 399.917 251.74 399.929 251.354L400.282 240.219C400.294 239.833 400.23 239.448 400.093 239.087C399.957 238.726 399.75 238.395 399.485 238.114C399.221 237.832 398.903 237.606 398.551 237.447C398.199 237.289 397.819 237.201 397.433 237.189L327.857 235.359C327.471 235.346 327.086 235.409 326.725 235.545C326.364 235.681 326.033 235.887 325.752 236.151C325.47 236.415 325.244 236.732 325.085 237.084C324.926 237.436 324.839 237.816 324.827 238.202L324.48 249.343C324.456 250.121 324.741 250.876 325.272 251.444C325.804 252.012 326.539 252.346 327.316 252.373Z" fill="#8C8C8C" stroke="#263238" stroke-linecap="round" stroke-linejoin="round"/>
<path d="M356.409 252.912L396.907 254.192C398.53 254.243 399.887 252.969 399.939 251.346L400.29 240.21C400.342 238.587 399.068 237.23 397.445 237.179L356.947 235.899C355.324 235.848 353.967 237.122 353.916 238.744L353.564 249.881C353.513 251.503 354.787 252.861 356.409 252.912Z" fill="#8C8C8C" stroke="#263238" stroke-linecap="round" stroke-linejoin="round"/>
<path d="M322.678 300.019L322.338 302.585C322.338 302.585 319.259 308.741 318.06 309.767C316.86 310.794 309.338 314.038 307.972 314.551C306.606 315.064 308.998 316.631 312.25 316.777C315.502 316.923 321.485 316.95 323.537 316.437C325.59 315.924 329.521 313.012 330.38 312.846L331.074 315.065C331.074 315.065 334.839 313.678 336.204 313.359C337.57 313.04 339.796 311.279 339.796 311.279C339.019 308.89 338.107 306.548 337.064 304.262C336.433 303.116 335.623 302.077 334.665 301.184L332.107 298.133L322.678 300.019Z" fill="#263238" stroke="#263238" stroke-linecap="round" stroke-linejoin="round"/>
<path d="M343.373 202.315L337.73 205.733L325.416 209.324C325.416 209.324 286.423 216.507 284.197 219.093C281.972 221.679 282.811 223.884 284.71 227.136C286.61 230.388 319.627 302.411 319.627 302.411L333.313 299.673L310.392 230.707C310.392 230.707 353.496 239.429 361.005 238.056C368.514 236.683 378.109 228.654 379.815 222.498C381.521 216.341 373.658 206.551 373.658 206.551L343.373 202.315Z" fill="#A0C97B" stroke="#263238" stroke-linecap="round" stroke-linejoin="round"/>
<path d="M300.692 224.016C300.692 224.016 309.31 228.176 310.856 232.856" stroke="#263238" stroke-linecap="round" stroke-linejoin="round"/>
<path d="M388.01 145.191L369.54 143.478L342.521 204.707L360.305 207.785L388.01 145.191Z" fill="white" stroke="#263238" stroke-linecap="round" stroke-linejoin="round"/>
<path d="M369.879 149.198C369.879 149.198 342.86 203.84 342.507 204.707C342.153 205.573 334.471 207.785 332.758 208.125C331.046 208.465 325.402 209.324 325.402 209.324L334.984 202.828L341.813 185.21L333.493 180.96C333.493 180.96 348.885 157.872 352.303 150.003C355.722 142.133 357.067 140.053 360.478 139.887C363.889 139.721 373.651 140.4 373.651 140.4L369.879 149.198Z" fill="#A0C97B" stroke="#263238" stroke-linecap="round" stroke-linejoin="round"/>
<path d="M366.122 160.749L366.461 164.687C366.461 164.687 348.504 196.837 348.338 197.524C348.171 198.21 349.724 202.994 349.724 202.994L356.054 198.377L368.021 165.374L371.273 163.488V157.38L366.122 160.749Z" fill="#263238" stroke="#263238" stroke-linecap="round" stroke-linejoin="round"/>
<path d="M373.263 101.65C373.263 101.65 366.912 117.028 365.505 121.687C364.097 126.346 363.106 133.959 363.425 134.805C363.744 135.651 365.505 138.611 368.784 138.757C372.064 138.902 374.851 138.895 374.851 138.895L369.914 149.198C369.914 149.198 370.476 157.241 371.301 157.38C372.126 157.518 384.564 147.93 384.849 147.5C385.133 147.07 393.03 130.166 393.03 130.166C393.03 130.166 400.088 126.637 400.511 123.531C400.649 122.662 400.552 121.772 400.228 120.954C399.905 120.136 399.368 119.419 398.674 118.879V115.066L401.78 105.754C401.78 105.754 394.021 100.679 385.41 98.5573C376.799 96.4357 374.969 97.864 374.969 97.864L373.263 101.65Z" fill="white" stroke="#263238" stroke-linecap="round" stroke-linejoin="round"/>
<path d="M387.511 93.0453C387.511 93.0453 374.816 89.6549 369.172 94.5984C363.529 99.5419 378.2 107.467 382.997 108.16C387.795 108.853 393.723 107.876 392.309 109.151C390.895 110.427 387.795 112.396 389.348 113.665C390.323 114.448 391.419 115.066 392.593 115.495C392.593 115.495 385.965 130.055 384.835 131.719C383.705 133.383 381.59 133.273 380.321 132.85C379.052 132.427 372.986 128.62 371.01 127.913C369.034 127.206 365.366 125.091 364.52 127.351C363.674 129.612 361.553 139.201 364.659 141.315C367.765 143.43 382.859 138.07 385.119 136.517C387.379 134.964 388.08 132.142 388.503 131.581C388.925 131.019 394.992 121.001 395.554 120.293C396.115 119.586 398.66 118.907 398.66 118.907C398.66 118.907 403.742 108.742 404.165 104.797C404.588 100.852 391.324 92.9067 387.511 93.0453Z" fill="#263238" stroke="#263238" stroke-linecap="round" stroke-linejoin="round"/>
<path d="M374.255 112.653L373.97 118.893C373.97 118.893 367.342 126.367 367.342 127.213C367.342 128.059 375.239 127.074 375.239 127.074" stroke="#263238" stroke-linecap="round" stroke-linejoin="round"/>
<path d="M373.263 111.245C373.021 110.773 372.62 110.4 372.13 110.193C371.641 109.987 371.094 109.959 370.587 110.115" stroke="#263238" stroke-linecap="round" stroke-linejoin="round"/>
<path d="M379.191 114.767C379.191 114.767 383.282 114.344 384.55 117.451" stroke="#263238" stroke-linecap="round" stroke-linejoin="round"/>
<path d="M368.16 130.43C368.16 130.43 371.828 132.69 374.227 132.69" stroke="white" stroke-linecap="round" stroke-linejoin="round"/>
<path d="M380.585 120.883C380.196 121.652 379.489 122.068 379.004 121.826C378.518 121.583 378.435 120.758 378.823 119.995C379.212 119.233 379.919 118.81 380.404 119.052C380.89 119.295 380.973 120.12 380.585 120.883Z" fill="#263238"/>
<path d="M371.752 117.451C371.37 118.213 370.656 118.636 370.171 118.387C369.685 118.137 369.602 117.326 369.99 116.556C370.379 115.787 371.086 115.371 371.571 115.62C372.057 115.87 372.14 116.681 371.752 117.451Z" fill="#263238"/>
<path d="M310.537 294.299L309.338 301.482L306.772 302.175C306.772 302.175 304.373 305.067 303.867 305.76C303.361 306.453 297.024 311.057 295.319 311.917C293.613 312.777 289.328 313.109 289.501 314.309C289.675 315.508 298.737 316.534 304.554 316.701C310.371 316.867 313.616 314.995 313.616 314.995L314.129 316.188L320.112 315.675C320.112 315.675 319.772 310.031 319.946 307.639C320 305.693 319.884 303.747 319.599 301.822L319.259 296.865L310.537 294.299Z" fill="#263238" stroke="#263238" stroke-linecap="round" stroke-linejoin="round"/>
<path d="M358.599 210.35C358.599 210.35 310.024 216.334 308.998 217.533C307.972 218.733 308.825 254.134 308.825 254.134L303.181 295.568L320.625 300.907C320.625 300.907 326.103 265.97 327.981 256.533C329.266 249.517 330.18 242.437 330.72 235.324C330.72 235.324 357.573 241.481 366.773 236.35C375.974 231.22 374.123 224.89 374.123 224.89" fill="#A0C97B"/>
<path d="M358.599 210.35C358.599 210.35 310.024 216.334 308.998 217.533C307.972 218.733 308.825 254.134 308.825 254.134L303.181 295.568L320.625 300.907C320.625 300.907 326.103 265.97 327.981 256.533C329.266 249.517 330.18 242.437 330.72 235.324C330.72 235.324 357.573 241.481 366.773 236.35C375.974 231.22 374.123 224.89 374.123 224.89" stroke="#263238" stroke-linecap="round" stroke-linejoin="round"/>
<path d="M309.754 252.748C309.754 252.748 311.965 242.805 312.402 237.494" stroke="#263238" stroke-linecap="round" stroke-linejoin="round"/>
<path d="M327.108 229.604C326.582 228.899 325.948 228.282 325.229 227.774" stroke="#263238" stroke-linecap="round" stroke-linejoin="round"/>
<path d="M330.72 235.324C330.72 235.324 329.736 233.397 328.446 231.449" stroke="#263238" stroke-linecap="round" stroke-linejoin="round"/>
<path d="M387.331 141.939C387.331 141.939 368.001 177.493 363.896 186.576C359.792 195.659 354.293 208.298 354.293 209.664C354.293 211.03 350.702 246.099 351.901 246.778C353.101 247.458 371.051 241.647 379.434 238.403C387.816 235.158 388.156 232.759 388.842 230.873C389.529 228.987 389.355 204.707 389.355 204.707C389.355 204.707 406.8 155.106 406.626 152.887C406.453 150.668 387.331 141.939 387.331 141.939Z" fill="#A0C97B" stroke="#263238" stroke-linecap="round" stroke-linejoin="round"/>
<path d="M372.639 177.909C369.471 181.015 366.808 183.331 366.808 183.331" stroke="#263238" stroke-linecap="round" stroke-linejoin="round"/>
<path d="M393.488 145.87C393.488 145.87 385.452 161.609 381.34 167.939C379.312 170.84 377.024 173.551 374.504 176.037" stroke="#263238" stroke-linecap="round" stroke-linejoin="round"/>
<path d="M367.779 142.57C367.779 142.57 359.459 156.478 357.06 164.688C354.661 172.897 354.148 177.168 354.148 177.168" stroke="#263238" stroke-linecap="round" stroke-linejoin="round"/>
<path d="M363.383 162.462L371.287 157.38L371.592 169.305" stroke="#263238" stroke-linecap="round" stroke-linejoin="round"/>
<path d="M380.245 215.897L382.886 215.481" stroke="#263238" stroke-linecap="round" stroke-linejoin="round"/>
<path d="M382.027 212.403L363.383 214.628V218.559L376.695 216.459" stroke="#263238" stroke-linecap="round" stroke-linejoin="round"/>
<path d="M356.034 147.923C356.034 147.923 359.112 141.426 360.651 141.253C362.19 141.079 365.609 141.253 365.609 142.639C365.609 144.026 363.73 144.179 363.73 144.179H361.164L359.965 147.257L356.034 147.923Z" fill="white" stroke="#263238" stroke-linecap="round" stroke-linejoin="round"/>
<path d="M351.756 160.236L352.955 153.566C352.955 153.566 353.468 147.756 354.342 147.41C355.215 147.063 363.064 147.243 363.064 147.243C363.064 147.243 363.237 154.079 362.551 155.792C361.864 157.504 358.786 158.184 358.786 158.184C358.502 159.251 358.102 160.283 357.594 161.262C357.081 161.956 355.195 162.802 355.195 162.802L354.682 164.188L350.237 161.276L351.756 160.236Z" fill="white" stroke="#263238" stroke-linecap="round" stroke-linejoin="round"/>
<path d="M358.765 158.191L357.913 154.939L361.164 154.766" fill="white"/>
<path d="M358.765 158.191L357.913 154.939L361.164 154.766" stroke="#263238" stroke-linecap="round" stroke-linejoin="round"/>
<path d="M350.043 159.73L357.06 164.687L354.321 167.592L348.338 162.122L350.043 159.73Z" fill="white" stroke="#263238" stroke-linecap="round" stroke-linejoin="round"/>
<path d="M348.338 162.122L356.373 168.106L340.981 191.54C339.16 191.927 337.268 191.807 335.511 191.194C332.599 190.167 329.867 184.357 329.867 183.671C329.867 182.984 348.338 162.122 348.338 162.122Z" fill="#A0C97B" stroke="#263238" stroke-linecap="round" stroke-linejoin="round"/>
<path d="M342.181 189.315C342.181 189.315 339.616 184.524 339.442 183.158C339.269 181.792 339.103 179.053 338.243 178.027C337.383 177.001 336.364 176.315 336.024 174.775C335.684 173.236 334.138 173.923 333.944 175.469C333.75 177.015 335.137 178.547 335.137 178.547C335.137 178.547 330.866 177.161 330.179 177.521C329.493 177.882 328.099 178.374 328.467 179.601C328.695 180.354 328.985 181.087 329.334 181.792C329.334 181.792 326.602 185.383 326.602 187.089C326.602 188.795 328.481 191.54 329.854 192.566C331.226 193.593 336.01 194.646 336.01 194.646L342.181 189.315Z" fill="white" stroke="#263238" stroke-linecap="round" stroke-linejoin="round"/>
<path d="M391.525 154.121L376.043 186.236L338.243 188.316C337.29 188.547 336.418 189.036 335.725 189.73C335.032 190.423 334.542 191.294 334.311 192.247C333.914 193.812 333.742 195.425 333.798 197.038C333.798 197.038 358.939 200.117 366.808 200.63C374.677 201.143 384.252 202.169 385.452 200.97C386.651 199.77 400.844 170.359 400.844 170.359" fill="#A0C97B"/>
<path d="M391.525 154.121L376.043 186.236L338.243 188.316C337.29 188.547 336.418 189.036 335.725 189.73C335.032 190.423 334.542 191.294 334.311 192.247C333.914 193.812 333.742 195.425 333.798 197.038C333.798 197.038 358.939 200.117 366.808 200.63C374.677 201.143 384.252 202.169 385.452 200.97C386.651 199.77 400.844 170.359 400.844 170.359" stroke="#263238" stroke-linecap="round" stroke-linejoin="round"/>
<path d="M165.27 248.567H161.318V286.645H165.27V248.567Z" fill="#263238" stroke="#263238" stroke-linecap="round" stroke-linejoin="round"/>
<path d="M141.189 212.084L134.22 212.899L138.643 250.72L145.612 249.905L141.189 212.084Z" fill="#263238" stroke="#263238" stroke-linecap="round" stroke-linejoin="round"/>
<path d="M168.314 288.198V281.778H158.281V288.253L118.151 304.36V311.958H120.89V306.183L163.439 296.497L204.866 306.183V311.958H207.528V304.36L168.314 288.198Z" fill="#8C8C8C" stroke="#263238" stroke-linecap="round" stroke-linejoin="round"/>
<path d="M173.174 248.567H153.414V260.728H173.174V248.567Z" fill="#263238" stroke="#263238" stroke-linecap="round" stroke-linejoin="round"/>
<path d="M118.151 312.263C118.151 311.422 117.901 310.598 117.433 309.898C116.966 309.198 116.301 308.653 115.523 308.33C114.745 308.008 113.889 307.924 113.063 308.088C112.237 308.252 111.479 308.658 110.884 309.253C110.288 309.849 109.883 310.607 109.719 311.433C109.554 312.259 109.639 313.115 109.961 313.893C110.283 314.67 110.829 315.335 111.529 315.803C112.229 316.271 113.052 316.521 113.894 316.521C115.023 316.521 116.106 316.072 116.904 315.274C117.702 314.475 118.151 313.393 118.151 312.263Z" fill="#263238" stroke="#263238" stroke-linecap="round" stroke-linejoin="round"/>
<path d="M115.717 312.264C115.717 311.903 115.61 311.55 115.41 311.25C115.21 310.951 114.925 310.717 114.592 310.579C114.258 310.441 113.892 310.405 113.538 310.475C113.184 310.545 112.859 310.719 112.604 310.974C112.349 311.229 112.176 311.554 112.105 311.908C112.035 312.262 112.071 312.628 112.209 312.961C112.347 313.295 112.581 313.579 112.881 313.78C113.181 313.98 113.533 314.087 113.894 314.087C114.377 314.087 114.841 313.895 115.183 313.553C115.525 313.211 115.717 312.747 115.717 312.264Z" fill="white" stroke="#263238" stroke-linecap="round" stroke-linejoin="round"/>
<path d="M216.32 312.263C216.32 311.422 216.07 310.598 215.602 309.898C215.135 309.198 214.47 308.653 213.692 308.33C212.914 308.008 212.058 307.924 211.232 308.088C210.406 308.252 209.648 308.658 209.053 309.253C208.457 309.849 208.052 310.607 207.887 311.433C207.723 312.259 207.808 313.115 208.13 313.893C208.452 314.67 208.998 315.335 209.698 315.803C210.398 316.271 211.221 316.521 212.063 316.521C213.192 316.521 214.275 316.072 215.073 315.274C215.871 314.475 216.32 313.393 216.32 312.263Z" fill="#263238" stroke="#263238" stroke-linecap="round" stroke-linejoin="round"/>
<path d="M212.091 314.087C213.098 314.087 213.914 313.271 213.914 312.264C213.914 311.256 213.098 310.44 212.091 310.44C211.083 310.44 210.267 311.256 210.267 312.264C210.267 313.271 211.083 314.087 212.091 314.087Z" fill="white" stroke="#263238" stroke-linecap="round" stroke-linejoin="round"/>
<path d="M165.117 312.18H161.775L160.104 289.377H166.795L165.117 312.18Z" fill="#8C8C8C" stroke="#263238" stroke-linecap="round" stroke-linejoin="round"/>
<path d="M164.965 307.313H161.623V316.736H164.965V307.313Z" fill="#263238" stroke="#263238" stroke-linecap="round" stroke-linejoin="round"/>
<path d="M136.975 231.06C135.025 231.249 133.057 231.051 131.184 230.479C129.31 229.907 127.568 228.971 126.056 227.725C124.544 226.479 123.293 224.948 122.373 223.218C121.453 221.488 120.883 219.594 120.695 217.644L116.029 169.111C115.841 167.161 116.039 165.193 116.611 163.32C117.183 161.446 118.119 159.704 119.365 158.192C120.611 156.68 122.142 155.429 123.872 154.509C125.601 153.589 127.495 153.019 129.445 152.832C133.384 152.455 137.311 153.657 140.363 156.174C143.416 158.691 145.344 162.317 145.725 166.254L150.391 214.788C150.77 218.725 149.569 222.651 147.053 225.702C144.537 228.754 140.912 230.681 136.975 231.06Z" fill="#8C8C8C" stroke="#263238" stroke-linecap="round" stroke-linejoin="round"/>
<path d="M140.511 230.721C136.573 231.099 132.646 229.899 129.593 227.383C126.541 224.867 124.612 221.242 124.231 217.305L119.565 168.771C119.198 164.84 120.404 160.924 122.919 157.881C125.433 154.837 129.052 152.914 132.981 152.533C136.92 152.155 140.848 153.356 143.901 155.873C146.954 158.391 148.882 162.018 149.261 165.956L153.92 214.441C154.299 218.378 153.099 222.304 150.585 225.356C148.07 228.409 144.447 230.338 140.511 230.721Z" fill="#8C8C8C" stroke="#263238" stroke-linecap="round" stroke-linejoin="round"/>
<path d="M207.82 252.373L135.831 254.204C135.445 254.216 135.06 254.152 134.699 254.015C134.337 253.878 134.007 253.672 133.725 253.407C133.444 253.142 133.217 252.825 133.059 252.473C132.9 252.12 132.813 251.74 132.801 251.354L132.426 240.219C132.402 239.441 132.688 238.684 133.221 238.116C133.754 237.548 134.491 237.215 135.269 237.189L207.306 235.359C207.692 235.346 208.077 235.409 208.438 235.545C208.799 235.681 209.13 235.887 209.412 236.151C209.693 236.415 209.92 236.732 210.078 237.084C210.237 237.436 210.325 237.816 210.336 238.202L210.69 249.343C210.702 249.731 210.637 250.118 210.499 250.48C210.361 250.843 210.153 251.175 209.886 251.456C209.619 251.738 209.299 251.964 208.944 252.121C208.59 252.279 208.207 252.364 207.82 252.373Z" fill="#8C8C8C" stroke="#263238" stroke-linecap="round" stroke-linejoin="round"/>
<path d="M175.801 235.906L135.303 237.186C133.68 237.237 132.406 238.594 132.457 240.217L132.809 251.353C132.861 252.976 134.218 254.25 135.84 254.198L176.339 252.919C177.961 252.867 179.235 251.51 179.184 249.888L178.832 238.751C178.781 237.128 177.424 235.855 175.801 235.906Z" fill="#8C8C8C" stroke="#263238" stroke-linecap="round" stroke-linejoin="round"/>
<path d="M217.013 229.694C217.013 229.694 217.63 241.592 219.266 252.249C220.903 262.905 223.614 295.235 223.614 295.235C224.466 298.482 225.627 301.639 227.08 304.665C228.05 306.673 229.292 308.54 230.769 310.211C230.769 310.211 236.101 315.543 235.893 316.361C235.685 317.179 232.343 317.096 229.063 316.479C225.784 315.862 225.111 315.092 223.267 313.851C221.423 312.61 217.228 311.022 215.384 310.385C213.54 309.747 212.929 308.138 213.546 306.294C214.164 304.45 216.216 300.144 216.216 297.482C216.216 294.819 214.573 282.187 210.08 273.777C205.587 265.366 202.904 250.813 202.904 250.813L217.013 229.694Z" fill="white" stroke="#263238" stroke-linecap="round" stroke-linejoin="round"/>
<path d="M218.102 306.911C216.798 305.899 215.578 304.831 214.538 303.826C214.15 304.817 213.789 305.691 213.588 306.294C212.971 308.138 213.588 309.761 215.425 310.385C217.263 311.009 221.464 312.603 223.309 313.851C225.153 315.099 225.825 315.862 229.105 316.479C232.384 317.096 235.733 317.172 235.934 316.361C236.135 315.55 230.81 310.211 230.81 310.211L228.148 311.445C228.148 311.445 221.79 309.781 218.102 306.911Z" fill="#A0C97B" stroke="#263238" stroke-linecap="round" stroke-linejoin="round"/>
<path d="M138.362 205.261C138.362 205.261 136.517 212.486 137.523 217.048C138.528 221.61 145.42 232.163 157.345 234.686C169.27 237.21 199.243 236.385 199.243 236.385C199.243 236.385 192.019 247.361 189.328 260.575C187.554 269.325 182.111 281.57 181.272 283.421C180.433 285.272 170.518 288.628 170.872 290.139C171.226 291.651 172.383 301.052 174.9 304.921C177.417 308.79 181.619 310.468 183.296 310.967C184.974 311.466 185.314 311.466 185.314 309.788C185.314 308.11 184.135 305.76 184.135 304.242C184.135 302.723 183.969 292.455 184.642 291.138C185.314 289.82 207.307 255.147 210.662 249.461C214.018 243.776 219.232 232.662 220.743 230.818C222.255 228.973 224.099 226.45 222.588 223.26C221.076 220.071 186.375 209.394 186.375 209.394L184.551 202.939L167.218 201.933L138.362 205.261Z" fill="white" stroke="#263238" stroke-linecap="round" stroke-linejoin="round"/>
<path d="M186.375 209.387L184.551 202.932L167.218 201.926L138.327 205.282C138.327 205.282 136.441 212.514 137.488 217.069C139.152 224.273 145.385 232.184 157.31 234.707C169.236 237.231 199.208 236.406 199.208 236.406C199.208 236.406 202.051 222.2 207.605 216.66C200.935 214.386 186.375 209.387 186.375 209.387Z" fill="#263238" stroke="#263238" stroke-linecap="round" stroke-linejoin="round"/>
<path d="M199.243 236.357C203.243 235.298 207.125 233.834 210.829 231.989L199.243 236.357Z" fill="white"/>
<path d="M199.243 236.357C203.243 235.298 207.125 233.834 210.829 231.989" stroke="#263238" stroke-linecap="round" stroke-linejoin="round"/>
<path d="M176.564 298.175C175.372 295.402 175.448 289.855 175.6 286.888C173.063 288.142 170.685 289.356 170.858 290.112C171.191 291.623 172.37 301.025 174.886 304.893C177.403 308.762 181.605 310.44 183.283 310.939C184.96 311.438 185.3 311.438 185.3 309.761C185.3 308.083 184.128 305.739 184.122 304.214C182.365 303.99 180.626 303.65 178.915 303.195C178.915 303.195 178.242 302.037 176.564 298.175Z" fill="#A0C97B" stroke="#263238" stroke-linecap="round" stroke-linejoin="round"/>
<path d="M174.138 138.75L168.931 140.934C168.931 140.934 173.132 180.267 172.966 185.813C172.799 191.36 172.46 202.453 172.46 202.453C172.46 202.453 179.684 204.637 184.551 202.959L184.219 183.983C184.219 183.983 187.748 165.838 186.403 159.959C185.058 154.079 180.856 143.666 180.856 143.666C180.856 143.666 178.88 138.916 174.138 138.75Z" fill="white" stroke="#263238" stroke-linecap="round" stroke-linejoin="round"/>
<path d="M172.64 155.716L177.687 148.027L183.893 157.04C183.893 157.04 181.209 144.442 180.87 143.603C180.065 142.022 178.848 140.688 177.348 139.741C175.33 138.396 172.973 138.355 171.634 138.23C170.296 138.105 168.944 140.92 168.944 140.92L172.64 155.716Z" fill="white" stroke="#263238" stroke-linecap="round" stroke-linejoin="round"/>
<path d="M170.283 138.133C170.283 138.133 153.4 141.828 151.951 142.882C150.502 143.936 149.871 147.368 150.231 148.685C150.592 150.003 154.454 178.499 154.454 178.499L135.041 206.856C135.041 206.856 141.378 212.132 147.313 213.186C153.247 214.24 165.908 212.659 170.394 210.815L174.879 208.971C174.879 208.971 176.959 174.54 174.748 160.95C172.536 147.361 170.283 138.133 170.283 138.133Z" fill="#A0C97B" stroke="#263238" stroke-linecap="round" stroke-linejoin="round"/>
<path d="M222.123 181.924L228.717 179.026C228.717 179.026 230.7 174.671 230.963 174.276C231.227 173.881 233.466 173.222 234.52 172.293C235.574 171.364 237.03 169.79 237.425 169.659C237.82 169.527 238.479 170.713 237.425 172.293C236.626 173.414 235.695 174.433 234.652 175.33L241.12 172.959C241.12 172.959 243.623 168.737 244.282 170.581C244.941 172.425 241.509 178.103 240.725 179.948C239.942 181.792 239.137 182.721 237.688 182.985C236.239 183.248 231.753 184.038 230.831 184.17C229.909 184.302 224.231 187.595 224.231 187.595L222.123 181.924Z" fill="white" stroke="#263238" stroke-linecap="round" stroke-linejoin="round"/>
<path d="M231.275 180.606C232.447 179.615 233.799 178.63 234.52 178.63C235.976 178.63 239.138 178.894 239.138 178.894C239.138 178.894 240.989 174.671 241.911 174.041C242.833 173.41 243.623 174.304 242.833 175.621" fill="white"/>
<path d="M231.275 180.606C232.447 179.615 233.799 178.63 234.52 178.63C235.976 178.63 239.138 178.894 239.138 178.894C239.138 178.894 240.989 174.671 241.911 174.041C242.833 173.41 243.623 174.304 242.833 175.621" stroke="#263238" stroke-linecap="round" stroke-linejoin="round"/>
<path d="M179.123 141.301C179.123 141.301 183.345 159.633 183.213 166.49C183.081 173.347 180.96 176.8 181.362 179.157C181.764 181.515 182.679 209.234 182.679 209.234L186.375 209.366C186.375 209.366 185.453 198.813 185.584 196.83C185.716 194.848 187.033 186.937 187.033 186.937C187.033 186.937 193.634 199.999 194.556 200.658C195.478 201.316 226.082 188.261 226.082 188.261L223.836 180.738L200.491 185.488C200.491 185.488 195.873 170.186 195.215 166.885C194.556 163.585 194.029 151.986 192.178 149.081C190.327 146.176 179.123 141.301 179.123 141.301Z" fill="#A0C97B" stroke="#263238" stroke-linecap="round" stroke-linejoin="round"/>
<path d="M187.033 186.937C187.033 186.937 187.824 183.643 189.148 174.935C189.944 169.736 189.988 164.45 189.28 159.238" stroke="#263238" stroke-linecap="round" stroke-linejoin="round"/>
<path d="M185.591 151.57C186.222 156.319 186.694 162.185 185.848 165.436C184.882 169.127 183.647 172.742 182.152 176.252" stroke="#263238" stroke-linecap="round" stroke-linejoin="round"/>
<path d="M184.427 144.213C184.427 144.213 184.822 146.203 185.259 149.067" stroke="#263238" stroke-linecap="round" stroke-linejoin="round"/>
<path d="M171.808 169.867C173.52 174.11 175.032 178.249 175.032 178.249" stroke="#263238" stroke-linecap="round" stroke-linejoin="round"/>
<path d="M163.821 140.241C163.821 140.241 166.851 158.843 169.229 163.856C169.714 164.875 170.241 166.081 170.775 167.322" stroke="#263238" stroke-linecap="round" stroke-linejoin="round"/>
<path d="M201.281 177.972L206.426 176.516C206.426 176.516 209.726 172.293 210.517 171.239C211.307 170.186 213.151 170.186 214.476 169.395C215.8 168.605 217.505 165.7 218.164 166.227C218.823 166.754 218.164 169.132 217.471 169.79C216.588 170.505 215.661 171.165 214.697 171.766C214.171 172.162 220.896 170.581 220.896 170.581C220.896 170.581 225.25 166.754 225.514 167.807C225.777 168.861 223.531 172.557 223.531 172.557C223.531 172.557 220.369 175.587 218.781 176.904C217.193 178.221 213.373 178.755 212.319 178.984C211.266 179.213 209.421 179.511 209.421 179.511L201.503 182.409L201.281 177.972Z" fill="white" stroke="#263238" stroke-linecap="round" stroke-linejoin="round"/>
<path d="M222.518 173.333C222.518 173.333 219.745 174.651 218.296 175.309L222.518 173.333Z" fill="white"/>
<path d="M222.518 173.333C222.518 173.333 219.745 174.651 218.296 175.309" stroke="#263238" stroke-linecap="round" stroke-linejoin="round"/>
<path d="M214.739 171.766L212.361 172.293" stroke="#263238" stroke-linecap="round" stroke-linejoin="round"/>
<path d="M154.849 141.828C154.849 141.828 147.07 144.463 145.877 146.446C144.685 148.429 148.914 164.646 152.083 173.618C155.251 182.589 163.689 197.621 164.743 198.148C165.797 198.675 193.371 188.92 199.68 186.937C205.989 184.954 207.064 183.907 207.064 183.907L204.291 176.779L172.64 182.451L162.933 151.986" fill="#A0C97B"/>
<path d="M154.849 141.828C154.849 141.828 147.07 144.463 145.877 146.446C144.685 148.429 148.914 164.646 152.083 173.618C155.251 182.589 163.689 197.621 164.743 198.148C165.797 198.675 193.371 188.92 199.68 186.937C205.989 184.954 207.064 183.907 207.064 183.907L204.291 176.779L172.64 182.451L162.933 151.986" stroke="#263238" stroke-linecap="round" stroke-linejoin="round"/>
<path d="M193.072 101.657C193.072 101.657 196.151 103.737 194.591 105.976C193.031 108.216 189.737 108.368 189.737 108.368L186.86 103.834C186.86 103.834 190.285 99.7708 193.072 101.657Z" fill="#263238" stroke="#263238" stroke-linecap="round" stroke-linejoin="round"/>
<path d="M189.842 104.361C189.842 104.361 194.563 115.565 194.3 116.529C194.036 117.492 191.838 118.997 192.837 120.46C193.835 121.923 196.761 124.849 196.685 125.258C196.608 125.667 193.031 127.754 193.031 127.754C193.031 127.754 190.528 136.767 189.509 138.084C188.49 139.402 179.885 137.8 179.885 137.8L178.069 147.895L167.849 138.369L164.029 134.763C164.029 134.763 160.604 119.385 167.87 110.143C175.136 100.901 189.842 104.361 189.842 104.361Z" fill="white" stroke="#263238" stroke-linecap="round" stroke-linejoin="round"/>
<path d="M189.19 120.148C189.19 121.091 188.802 121.853 188.365 121.846C187.928 121.84 187.588 121.063 187.609 120.113C187.63 119.163 187.99 118.408 188.427 118.414C188.864 118.421 189.204 119.198 189.19 120.148Z" fill="#263238"/>
<path d="M189.211 130.007C188.394 129.968 187.593 129.764 186.858 129.406C186.123 129.049 185.468 128.546 184.933 127.927C184.933 127.927 184.676 131.983 185.938 132.219C187.2 132.454 189.211 130.007 189.211 130.007Z" fill="#263238" stroke="#263238" stroke-linecap="round" stroke-linejoin="round"/>
<path d="M186.555 116.39C186.555 116.39 189.183 114.164 191.533 116.771" stroke="#263238" stroke-linecap="round" stroke-linejoin="round"/>
<path d="M179.885 137.8L175.621 136.781L178.831 142.737L179.885 137.8Z" fill="#263238" stroke="#263238" stroke-linecap="round" stroke-linejoin="round"/>
<path d="M189.841 104.361C189.841 104.361 188.912 107.28 184.371 111.093C179.83 114.906 175.767 117.333 175.781 118.387C175.795 119.441 176.474 120.425 175.559 120.682C174.813 120.777 174.055 120.649 173.382 120.314C173.382 120.314 171.177 126.603 170.844 131.04C170.709 133.969 171.154 136.895 172.155 139.651C172.155 139.651 162.372 140.178 156.728 135.893C151.084 131.609 149.496 126.755 150.12 122.547C150.744 118.338 152.533 105.047 161.214 98.5366C169.894 92.0262 182.333 92.2966 186.555 94.952C190.778 97.6075 193.835 99.5558 193.059 101.657C192.282 103.757 189.841 104.361 189.841 104.361Z" fill="#263238" stroke="#263238" stroke-linecap="round" stroke-linejoin="round"/>
<path d="M169.34 236.78C169.081 236.782 168.825 236.725 168.591 236.614C168.096 236.344 167.717 235.903 167.524 235.373C167.331 234.843 167.338 234.261 167.544 233.737C170.678 225.181 174.269 209.921 170.588 205.365C169.728 204.672 164.549 203.285 136.649 206.17L134.617 206.378C132.669 206.544 131.005 209.359 130.575 210.33C130.484 210.577 130.34 210.803 130.154 210.99C129.968 211.178 129.744 211.324 129.497 211.418C129.25 211.512 128.986 211.552 128.722 211.535C128.459 211.518 128.202 211.445 127.968 211.321C127.491 211.015 127.14 210.547 126.98 210.004C126.819 209.46 126.86 208.877 127.095 208.361C127.365 207.75 129.868 202.37 134.319 201.982L136.295 201.781C166.025 198.689 171.725 200.249 173.458 202.384C180.003 210.482 172.071 232.891 171.135 235.421C171.014 235.806 170.775 236.143 170.454 236.387C170.132 236.63 169.743 236.768 169.34 236.78Z" fill="white" stroke="#263238" stroke-linecap="round" stroke-linejoin="round"/>
<path d="M291.907 171.628H246.348L235.81 207.327H281.369L291.907 171.628Z" fill="#D9D9D9" stroke="#263238" stroke-linecap="round" stroke-linejoin="round"/>
<path d="M202.481 205.372L201.906 207.327H281.368L281.951 205.372H202.481Z" fill="#D9D9D9" stroke="#263238" stroke-linecap="round" stroke-linejoin="round"/>
<path d="M236.468 205.372L235.893 207.327H281.369L281.951 205.372H236.468Z" fill="#263238" stroke="#263238" stroke-linecap="round" stroke-linejoin="round"/>
<path d="M280.717 212.687H273.007V315.772H280.717V212.687Z" fill="white" stroke="#263238" stroke-linecap="round" stroke-linejoin="round"/>
<path d="M280.717 212.687H273.007V229.715H280.717V212.687Z" fill="#263238" stroke="#263238" stroke-linecap="round" stroke-linejoin="round"/>
<path d="M374.379 207.348H178.651V213.075H374.379V207.348Z" fill="white" stroke="#263238" stroke-linecap="round" stroke-linejoin="round"/>
<path d="M317.089 316.611H235.969C243.994 312.836 252.754 310.881 261.622 310.884H291.526C300.394 310.879 309.154 312.835 317.179 316.611H317.089Z" fill="white" stroke="#263238" stroke-linecap="round" stroke-linejoin="round"/>
</svg>
